<svg xmlns="http://www.w3.org/2000/svg" width="1200" height="630" viewBox="0 0 1200 630" role="img" aria-label="DeSonKuPik audio mastering app preview">
  <defs>
    <radialGradient id="g1" cx="18%" cy="12%" r="70%"><stop offset="0" stop-color="#25e4ff" stop-opacity="0.42"/><stop offset="1" stop-color="#060812" stop-opacity="0"/></radialGradient>
    <radialGradient id="g2" cx="85%" cy="15%" r="65%"><stop offset="0" stop-color="#9863ff" stop-opacity="0.45"/><stop offset="1" stop-color="#060812" stop-opacity="0"/></radialGradient>
    <linearGradient id="accent" x1="0" x2="1"><stop offset="0" stop-color="#23e6ff"/><stop offset="0.58" stop-color="#9863ff"/><stop offset="1" stop-color="#ff9848"/></linearGradient>
    <filter id="shadow" x="-20%" y="-20%" width="140%" height="140%"><feDropShadow dx="0" dy="28" stdDeviation="36" flood-color="#000" flood-opacity="0.45"/></filter>
  </defs>
  <rect width="1200" height="630" fill="#060812"/>
  <rect width="1200" height="630" fill="url(#g1)"/>
  <rect width="1200" height="630" fill="url(#g2)"/>
  <g opacity="0.22" stroke="#ffffff" stroke-width="1"><path d="M0 90H1200M0 180H1200M0 270H1200M0 360H1200M0 450H1200M0 540H1200M120 0V630M240 0V630M360 0V630M480 0V630M600 0V630M720 0V630M840 0V630M960 0V630M1080 0V630"/></g>
  <g transform="translate(80 78)">
    <rect x="0" y="0" width="92" height="92" rx="26" fill="url(#accent)"/>
    <path d="M30 61V30h23c11 0 18 7 18 16s-7 15-18 15H30Z" fill="#061018" opacity="0.92"/>
    <path d="M52 31l22 15-22 15Z" fill="#061018"/>
  </g>
  <text x="80" y="226" font-family="Inter,Segoe UI,Arial,sans-serif" font-size="78" font-weight="800" fill="#ffffff" letter-spacing="-3">DeSonKuPik</text>
  <text x="82" y="286" font-family="Inter,Segoe UI,Arial,sans-serif" font-size="34" font-weight="600" fill="#b9d8e8">Beautiful audio mastering for creators</text>
  <text x="82" y="342" font-family="Inter,Segoe UI,Arial,sans-serif" font-size="25" fill="#93a9bd">Open audio. Preview a musical mastering chain. Export WAV or MP3.</text>
  <g transform="translate(82 390)">
    <rect width="188" height="52" rx="26" fill="url(#accent)"/>
    <text x="94" y="34" text-anchor="middle" font-family="Inter,Segoe UI,Arial,sans-serif" font-size="18" font-weight="800" fill="#061018">Download Desktop</text>
    <rect x="206" width="162" height="52" rx="26" fill="#ffffff" fill-opacity="0.08" stroke="#ffffff" stroke-opacity="0.16"/>
    <text x="287" y="34" text-anchor="middle" font-family="Inter,Segoe UI,Arial,sans-serif" font-size="18" font-weight="700" fill="#e7f7ff">Open Source</text>
  </g>
  <g transform="translate(690 108)" filter="url(#shadow)">
    <rect width="420" height="380" rx="34" fill="#0b1020" stroke="#ffffff" stroke-opacity="0.13"/>
    <rect x="22" y="22" width="376" height="54" rx="18" fill="#ffffff" fill-opacity="0.07"/>
    <circle cx="50" cy="49" r="7" fill="#ff6b6b"/><circle cx="74" cy="49" r="7" fill="#ffd166"/><circle cx="98" cy="49" r="7" fill="#41f0a4"/>
    <text x="250" y="56" text-anchor="middle" font-family="Inter,Segoe UI,Arial,sans-serif" font-size="16" font-weight="700" fill="#d8f3ff">DeSonKuPik Studio</text>
    <rect x="28" y="100" width="364" height="190" rx="28" fill="#060812" stroke="#ffffff" stroke-opacity="0.08"/>
    <g transform="translate(54 130)">
      <rect x="0" y="74" width="24" height="86" rx="12" fill="url(#accent)"/><rect x="42" y="35" width="24" height="125" rx="12" fill="url(#accent)"/><rect x="84" y="61" width="24" height="99" rx="12" fill="url(#accent)"/><rect x="126" y="9" width="24" height="151" rx="12" fill="url(#accent)"/><rect x="168" y="48" width="24" height="112" rx="12" fill="url(#accent)"/><rect x="210" y="22" width="24" height="138" rx="12" fill="url(#accent)"/><rect x="252" y="82" width="24" height="78" rx="12" fill="url(#accent)"/><rect x="294" y="54" width="24" height="106" rx="12" fill="url(#accent)"/>
    </g>
    <g transform="translate(28 312)">
      <rect width="66" height="36" rx="14" fill="#ffffff" fill-opacity="0.08"/><text x="33" y="24" text-anchor="middle" font-family="Inter,Segoe UI,Arial,sans-serif" font-size="13" fill="#cfeeff">EQ</text>
      <rect x="74" width="66" height="36" rx="14" fill="#ffffff" fill-opacity="0.08"/><text x="107" y="24" text-anchor="middle" font-family="Inter,Segoe UI,Arial,sans-serif" font-size="13" fill="#cfeeff">Comp</text>
      <rect x="148" width="66" height="36" rx="14" fill="#ffffff" fill-opacity="0.08"/><text x="181" y="24" text-anchor="middle" font-family="Inter,Segoe UI,Arial,sans-serif" font-size="13" fill="#cfeeff">Color</text>
      <rect x="222" width="66" height="36" rx="14" fill="#ffffff" fill-opacity="0.08"/><text x="255" y="24" text-anchor="middle" font-family="Inter,Segoe UI,Arial,sans-serif" font-size="13" fill="#cfeeff">Width</text>
      <rect x="296" width="66" height="36" rx="14" fill="#ffffff" fill-opacity="0.08"/><text x="329" y="24" text-anchor="middle" font-family="Inter,Segoe UI,Arial,sans-serif" font-size="13" fill="#cfeeff">Limiter</text>
    </g>
  </g>
</svg>
